@startuml

class Patient{
CPR: integer
name: string
birthdate: DATE
age: integer
phone: integer
email: string
adress: string
register()
updateInfo()
}

class Database{
name: string
tables: string
create()
drop()
insert()
update()
delete()
select()
}


class Doctor{
name: string
ID: integer
speciality: string
phone: integer
email: string
updateInfo()
}


class LabResult{
patientCPR: integer
date: DATE
time: TIME
requisition: integer
tests: string
comment: string
addResult()
}

class Prescription{
date: DATE
patientCPR: integer
doctorID: integer
dose: float
use: string
add()
renew()
remove()
}

class JournalNote{
date: DATE
patientCPR: integer
doctorID: integer
content: string
add()
edit()
remove()
}

class JournalNoteDoctor{
doctorID: integer
visibility: True/False
}

class Journal{
}

class Consultation{
date: DATE
time: TIME
titel: string
patientCPR: integer
doctorID: integer
reason: string
add()
edit()
remove()
}

class Medication{
name: string
type: string
chemicalComposition: string
use: string
}


Database"1"-u-"*"Patient
Database"1"-u-"*"Doctor
Database"1"-u-"*"LabResult
Database"1"-u-"*"Journal
Database"1"-u-"*"Consultation
Database"1"-u-"*"Prescription
Database"1"-u-"*"Medication

Doctor"1..*" -u- "*"Consultation : sets up
Patient "1"-r- "0..1"JournalNote : writes
Patient "1"--"*" LabResult
Doctor "1..*"-r-"*" LabResult
Doctor "1" -u- "1..2"JournalNoteDoctor : writes
Doctor"1..*" -u- "*"Prescription : writes

Journal "1" o-l- "*"Consultation
Journal "1" o-r- "1" Patient
Consultation"1" *-r- "1..3"JournalNote
Prescription"1" *-u- "1"Medication

JournalNote<|--JournalNoteDoctor
@enduml